<svg version="1" xmlns="http://www.w3.org/2000/svg" width="933.333" height="933.333" viewBox="0 0 700.000000 700.000000"><path d="M0 350v350h700V0H0v350zM344.8 94.4c1.5.8 3.6 2.5 4.8 3.8 1.8 2 243.2 418.4 247.8 427.5 3.2 6.3 1.1 14-5.1 18-2.6 1.7-7.1 1.8-78.3 1.8h-75.7l-3.2-2.5c-2.3-1.8-27.3-44.1-89.8-152-47.6-82.2-87.6-151.9-89-154.8-1.8-3.9-2.3-6-1.8-8.5.6-2.6 65.2-115.8 73.1-128 3.9-6 11.4-8.3 17.2-5.3zm-112 281.7c9.6 2.4 16.9 5.8 24.7 11.4 11.3 8 16.9 15.3 32.7 42.6 8.1 14 15.5 27.4 16.6 29.9 3.3 7.7 4.6 15.1 4.5 25-.2 26.5-17.1 49.1-43 57.6l-8.8 2.9-34.5-.1c-32.2 0-35-.2-42.2-2.2-27.7-7.7-48-28.4-54.9-56.2-1.8-7-2.1-10.4-1.7-20.5.7-15.9 3.5-24.2 15.9-45.7 8-13.8 10.7-17.6 17.9-24.8 9.7-9.7 17.9-14.9 29.5-18.6 14.9-4.8 28.3-5.2 43.3-1.3z"/></svg>