<svg id="livetype" xmlns="http://www.w3.org/2000/svg" width="119.66407" height="40" viewBox="0 0 119.66407 40">
  <title>Get_it_on_Google_Play_Badge_US-UK</title>
  <path d="M110.135 0.00013H9.53468C9.16798 0.00013 8.80568 0.00013 8.43995 0.00213C8.1338 0.00413 7.83009 0.00994 7.521 0.01483C6.84951 0.0227318 6.17961 0.0818063 5.5171 0.19154C4.85552 0.303663 4.21467 0.515046 3.61622 0.81854C3.0185 1.1246 2.47235 1.5223 1.99757 1.9972C1.5203 2.47077 1.12246 3.01815 0.81935 3.61829C0.5154 4.21724 0.304641 4.85907 0.19435 5.52161C0.0830109 6.18332 0.0230984 6.85265 0.01515 7.52361C0.00587 7.83021 0.00489 8.13783 0 8.44447V31.5587C0.00489 31.8692 0.00587 32.17 0.01515 32.4806C0.0231008 33.1516 0.0830134 33.8209 0.19435 34.4825C0.304336 35.1455 0.515108 35.7877 0.81935 36.3868C1.12233 36.985 1.52022 37.5302 1.99757 38.0011C2.47054 38.4781 3.01705 38.8761 3.61622 39.1798C4.21467 39.4841 4.85545 39.6968 5.5171 39.8106C6.17972 39.9195 6.84956 39.9786 7.521 39.9874C7.83009 39.9942 8.1338 39.9981 8.43995 39.9981C8.80567 40.0001 9.168 40.0001 9.53468 40.0001H110.135C110.494 40.0001 110.859 40.0001 111.219 39.9981C111.523 39.9981 111.836 39.9942 112.141 39.9874C112.811 39.9791 113.479 39.92 114.141 39.8106C114.804 39.696 115.448 39.4834 116.049 39.1798C116.647 38.8759 117.193 38.478 117.666 38.0011C118.142 37.5284 118.541 36.9836 118.848 36.3868C119.15 35.7872 119.358 35.1451 119.467 34.4825C119.578 33.8208 119.64 33.1516 119.652 32.4806C119.656 32.17 119.656 31.8692 119.656 31.5587C119.664 31.1954 119.664 30.8341 119.664 30.4649V9.53626C119.664 9.17005 119.664 8.80677 119.656 8.44447C119.656 8.13783 119.656 7.83021 119.652 7.52357C119.64 6.85255 119.578 6.18337 119.467 5.52157C119.358 4.85941 119.149 4.21763 118.848 3.61825C118.23 2.41533 117.252 1.43616 116.049 0.81845C115.448 0.515697 114.804 0.30437 114.141 0.19145C113.48 0.0812328 112.811 0.0221378 112.141 0.01469C111.836 0.00981 111.523 0.00395 111.219 0.002C110.859 0 110.494 0 110.135 0V0.00013Z" fill="#A6A6A6"/>
  <path d="M8.44487 39.125C8.14019 39.125 7.84287 39.1211 7.54058 39.1143C6.91436 39.1061 6.2896 39.0516 5.67144 38.9512C5.09503 38.8519 4.53664 38.6673 4.0147 38.4033C3.49754 38.1415 3.02585 37.7983 2.6177 37.3867C2.20364 36.98 1.85891 36.5082 1.59719 35.9902C1.33258 35.4688 1.14945 34.9099 1.05419 34.333C0.951311 33.7131 0.895651 33.0863 0.887687 32.458C0.881347 32.2471 0.873047 31.5449 0.873047 31.5449V8.44434C0.873047 8.44434 0.881887 7.75293 0.887737 7.5498C0.895363 6.92248 0.950699 6.29665 1.05327 5.67773C1.14871 5.09925 1.33197 4.53875 1.59673 4.01563C1.85749 3.49794 2.2003 3.02586 2.61187 2.61768C3.02297 2.20562 3.49617 1.8606 4.01421 1.59521C4.53495 1.33209 5.09228 1.14873 5.66753 1.05127C6.28772 0.949836 6.91465 0.894996 7.54304 0.88721L8.44536 0.875H111.214L112.127 0.8877C112.75 0.895099 113.371 0.94945 113.985 1.05029C114.566 1.14898 115.13 1.33362 115.656 1.59814C116.694 2.13299 117.539 2.97916 118.071 4.01807C118.332 4.53758 118.512 5.09351 118.607 5.66699C118.71 6.29099 118.768 6.92174 118.78 7.5542C118.783 7.8374 118.783 8.1416 118.783 8.44434C118.791 8.81934 118.791 9.17627 118.791 9.53613V30.4648C118.791 30.8281 118.791 31.1826 118.783 31.54C118.783 31.8652 118.783 32.1631 118.779 32.4697C118.768 33.0909 118.711 33.7104 118.608 34.3232C118.515 34.9043 118.333 35.4675 118.068 35.9932C117.805 36.5056 117.462 36.9733 117.053 37.3789C116.644 37.7927 116.172 38.1379 115.653 38.4014C115.128 38.6674 114.566 38.8527 113.985 38.9512C113.367 39.0522 112.742 39.1067 112.116 39.1143C111.823 39.1211 111.517 39.125 111.219 39.125L110.135 39.127L8.44487 39.125Z" fill="black"/>
  <path d="M42.1377 11.3275C42.1377 12.0723 41.9184 12.6653 41.4791 13.1077C40.9802 13.6338 40.33 13.897 39.5306 13.897C38.7651 13.897 38.1142 13.6303 37.5789 13.0963C37.0427 12.5626 36.7751 11.9008 36.7751 11.1112C36.7751 10.3212 37.0427 9.65982 37.5789 9.12577C38.1142 8.59208 38.7651 8.32506 39.5306 8.32506C39.9104 8.32506 40.2741 8.39973 40.6194 8.54871C40.9647 8.69804 41.2416 8.89626 41.4488 9.14453L40.9826 9.6136C40.6315 9.19173 40.148 8.98097 39.5306 8.98097C38.9723 8.98097 38.4895 9.17822 38.0821 9.57297C37.6746 9.96817 37.4709 10.4806 37.4709 11.1112C37.4709 11.7418 37.6746 12.2542 38.0821 12.6494C38.4895 13.0442 38.9723 13.2414 39.5306 13.2414C40.1229 13.2414 40.6166 13.0431 41.012 12.6459C41.2686 12.3872 41.417 12.0276 41.4567 11.5657H39.5306V10.9251H42.1008C42.1256 11.0644 42.1377 11.198 42.1377 11.3275" fill="white"/>
  <path d="M42.1377 11.3275H42.0493C42.0486 12.0553 41.8373 12.6205 41.4167 13.0449L41.4157 13.0456L41.4153 13.0463C40.9322 13.5542 40.3113 13.807 39.5306 13.8081C38.7855 13.807 38.1619 13.5514 37.6411 13.0334C37.1215 12.5143 36.8645 11.8806 36.8636 11.1112C36.8645 10.3414 37.1215 9.70806 37.6411 9.18931C38.1619 8.67091 38.7855 8.41499 39.5306 8.41393C39.8991 8.41393 40.2499 8.48619 40.5845 8.63028C40.9194 8.77544 41.184 8.96566 41.3811 9.20184L41.4488 9.14451L41.3863 9.08166L40.9201 9.55108L40.9826 9.61357L41.0507 9.55668C40.6832 9.11393 40.1674 8.89073 39.5306 8.89206C38.9516 8.89135 38.4423 9.09935 38.021 9.50913C37.5956 9.92024 37.3818 10.4615 37.3825 11.1112C37.3818 11.7609 37.5956 12.3021 38.021 12.7132C38.4423 13.123 38.9516 13.331 39.5306 13.3303C40.1425 13.3313 40.664 13.1226 41.0745 12.7088C41.3487 12.4323 41.5041 12.0494 41.5448 11.5733L41.5531 11.4768H39.619V11.0139H42.1008V10.925L42.0137 10.9407C42.0379 11.0754 42.0493 11.2035 42.0493 11.3275H42.1377H42.2261C42.2261 11.1924 42.2137 11.0536 42.1878 10.9091L42.1747 10.8362H39.4422V11.5657V11.6546H41.4567V11.5657L41.3687 11.558C41.3297 12.0053 41.1881 12.3421 40.9495 12.5831C40.5696 12.9636 40.1035 13.1514 39.5306 13.1525C38.993 13.1518 38.5368 12.9657 38.1436 12.5855C37.7541 12.2066 37.5603 11.723 37.5593 11.1112C37.5603 10.4993 37.7541 10.0157 38.1436 9.63686C38.5368 9.25668 38.993 9.07055 39.5306 9.06984C40.1284 9.07126 40.5797 9.26984 40.915 9.67091L40.9772 9.74522L41.5113 9.20735L41.5686 9.14975L41.5165 9.08753C41.2993 8.82717 41.0099 8.62051 40.6542 8.46708C40.2979 8.31322 39.9219 8.23615 39.5306 8.23615C38.7448 8.23544 38.0666 8.51322 37.5165 9.06291C36.9643 9.61153 36.6861 10.3011 36.6868 11.1112C36.6861 11.9209 36.9643 12.6108 37.5168 13.1598C38.0666 13.7091 38.7448 13.9865 39.5306 13.9858C40.349 13.9865 41.0279 13.7132 41.5431 13.1691L41.4792 13.1077L41.5417 13.1705C41.9996 12.7105 42.2267 12.0889 42.2261 11.3275H42.1377Z" fill="white"/>
  <path d="M46.2123 9.0997H43.7969V10.7907H45.9751V11.4316H43.7969V13.1226H46.2123V13.7778H43.116V8.4445H46.2123V9.0997Z" fill="white"/>
  <path d="M46.2123 9.09968V9.01079H43.7085V10.8796H45.8867V11.3424L43.7085 11.3427V13.2115H46.1239V13.6889H43.2044V8.53337H46.1239V9.09968H46.2123V9.01079V9.09968H46.3007V8.44448V8.35559H43.0276V13.8667H46.3007V13.1226V13.0337H43.8853V11.5205H46.0635V10.7907V10.7018H43.8853V9.18857H46.3007V9.09968H46.2123" fill="white"/>
  <path d="M49.0862 13.7778H48.4042V9.0997H46.9229V8.4445H50.5676V9.0997H49.0862V13.7778Z" fill="white"/>
  <path d="M49.0862 13.7778V13.6889H48.4926V9.01079H47.0113V8.53337H50.4792V9.01079H48.9978V13.7778H49.0862V13.6889V13.7778H49.1746V9.18857H50.656V8.44448V8.35559H46.8345V9.09968V9.18857H48.3158V13.8667H49.0862H49.1746V13.7778H49.0862" fill="white"/>
  <path d="M53.2048 13.7778V8.4445H53.8861V13.7778H53.2048Z" fill="white"/>
  <path d="M53.2046 13.7778H53.293V8.53337H53.7975V13.6889H53.2046V13.7778H53.293H53.2046V13.8667H53.8859H53.9743V8.35559H53.2046H53.1162V13.8667H53.2046V13.7778Z" fill="white"/>
  <path d="M56.9091 13.7778H56.2271V9.0997H54.7458V8.4445H58.3905V9.0997H56.9091V13.7778Z" fill="white"/>
  <path d="M56.9091 13.7778V13.6889H56.3155V9.01079H54.8343V8.53337H58.3021V9.01079H56.8207V13.7778H56.9091V13.6889V13.7778H56.9975V9.18857H58.4789V8.44448V8.35559H54.6575V9.09968V9.18857H56.1388V13.8667H56.9091H56.9975V13.7778H56.9091" fill="white"/>
  <path d="M61.9044 12.6421C62.297 13.0418 62.7773 13.2414 63.3454 13.2414C63.9134 13.2414 64.394 13.0418 64.786 12.6421C65.1789 12.2425 65.3758 11.7316 65.3758 11.1112C65.3758 10.4908 65.1789 9.97991 64.786 9.58026C64.394 9.18062 63.9134 8.98097 63.3454 8.98097C62.7773 8.98097 62.297 9.18062 61.9044 9.58026C61.5124 9.97991 61.3157 10.4908 61.3157 11.1112C61.3157 11.7316 61.5124 12.2425 61.9044 12.6421ZM65.2901 13.0886C64.7686 13.6278 64.1202 13.897 63.3454 13.897C62.5698 13.897 61.9216 13.6278 61.4013 13.0886C60.8795 12.55 60.6199 11.8908 60.6199 11.1112C60.6199 10.3316 60.8795 9.67226 61.4013 9.13377C61.9216 8.59448 62.5698 8.32506 63.3454 8.32506C64.1161 8.32506 64.7628 8.59591 65.2867 9.13724C65.8098 9.67857 66.0715 10.3365 66.0715 11.1112C66.0715 11.8908 65.8104 12.55 65.2901 13.0886Z" fill="white"/>
  <path d="M61.9044 12.6421L61.8415 12.7046C62.2487 13.1202 62.7566 13.3313 63.3454 13.3303C63.9337 13.3313 64.4424 13.1202 64.8488 12.7046C65.2587 12.2886 65.4648 11.7504 65.4642 11.1112C65.4648 10.472 65.2587 9.93375 64.8488 9.51775C64.4424 9.10211 63.9337 8.89099 63.3454 8.89206C62.7566 8.89099 62.2487 9.10211 61.8415 9.51775C61.4327 9.93375 61.2262 10.472 61.2273 11.1112C61.2262 11.7504 61.4327 12.2886 61.8415 12.7046L61.9044 12.6421L61.9673 12.5796C61.5923 12.1959 61.4048 11.7132 61.4041 11.1112C61.4048 10.5091 61.5923 10.0265 61.9673 9.64273C62.3457 9.25908 62.7977 9.07091 63.3454 9.06984C63.8926 9.07091 64.3457 9.25908 64.7231 9.64273C65.0988 10.0265 65.2863 10.5091 65.287 11.1112C65.2863 11.7132 65.0988 12.1959 64.7231 12.5796C64.3457 12.9633 63.8926 13.1514 63.3454 13.1525C62.7977 13.1514 62.3457 12.9633 61.9673 12.5796L61.9044 12.6421ZM65.2901 13.0886L65.2269 13.0268C64.72 13.549 64.1002 13.807 63.3454 13.8081C62.5902 13.807 61.9703 13.549 61.4644 13.0268L61.4621 13.0241L61.4644 13.0268C60.9586 12.5028 60.709 11.8709 60.7083 11.1112C60.709 10.3514 60.9586 9.71953 61.4644 9.19553C61.9703 8.67331 62.5902 8.41499 63.3454 8.41393C64.0953 8.41499 64.7138 8.67437 65.2235 9.19935C65.7311 9.72575 65.9821 10.3567 65.9832 11.1112C65.9821 11.8709 65.7318 12.5028 65.2269 13.0268L65.2901 13.0886L65.3537 13.1504C65.8895 12.597 66.1606 11.9105 66.16 11.1112C66.1606 10.3164 65.8885 9.63135 65.3501 9.07544C64.8115 8.51739 64.1368 8.23517 63.3454 8.23615C62.5498 8.23517 61.873 8.51606 61.3378 9.07197V9.07162C60.8008 9.62539 60.5308 10.3119 60.5315 11.1112C60.5308 11.9105 60.8008 12.597 61.3378 13.1507L61.3402 13.1532L61.3378 13.1504C61.873 13.7063 62.5498 13.9865 63.3454 13.9858C64.1406 13.9865 64.8174 13.7063 65.3537 13.1504L65.2901 13.0886" fill="white"/>
  <path d="M67.0281 13.7778V8.4445H67.8575L70.4352 12.5935H70.4645L70.4352 11.5657V8.4445H71.1172V13.7778H70.4058L67.709 9.42779H67.6797L67.709 10.456V13.7778H67.0281Z" fill="white"/>
  <path d="M67.0279 13.7778H67.1162V8.53337H67.8082L70.3859 12.6823H70.4643H70.5551L70.5234 11.5643V8.53337H71.0285V13.6889H70.4547L67.7578 9.33888H67.6794H67.5886L67.6204 10.4574V13.6889H67.0279V13.7778H67.1162H67.0279V13.8667H67.7088H67.7972V10.4545L67.7678 9.42537L67.6794 9.42777V9.51666H67.7088V9.42777L67.6338 9.47505L70.3565 13.8667H71.1169H71.2053V8.35559H70.435H70.3466V11.5667L70.3759 12.5959L70.4643 12.5935V12.5046H70.435V12.5935L70.5099 12.5463L67.9063 8.35559H67.0279H66.9395V13.8667H67.0279V13.7778Z" fill="white"/>
  <path d="M94.75 28.8889H96.3995V17.7767H94.75V28.8889ZM109.607 21.7796L107.716 26.5973H107.66L105.697 21.7796H103.92L106.863 28.5132L105.185 32.2587H106.906L111.441 21.7796H109.607ZM100.253 27.6268C99.7118 27.6268 98.9586 27.3552 98.9586 26.6831C98.9586 25.8254 99.8974 25.4966 100.707 25.4966C101.433 25.4966 101.773 25.6538 102.214 25.8685C102.086 26.8976 101.205 27.6268 100.253 27.6268ZM100.452 21.5365C99.2574 21.5365 98.0207 22.0656 97.5089 23.2379L98.9728 23.8525C99.2857 23.2379 99.8682 23.0375 100.48 23.0375C101.333 23.0375 102.2 23.5525 102.214 24.4674V24.5816C101.916 24.4101 101.276 24.1528 100.494 24.1528C98.9162 24.1528 97.3091 25.0247 97.3091 26.6545C97.3091 28.1414 98.6033 29.0993 100.053 29.0993C101.162 29.0993 101.773 28.599 102.158 28.0129H102.214V28.8705H103.806V24.6101C103.806 22.6375 102.342 21.5365 100.452 21.5365ZM90.2576 23.1323H87.9115V19.3233H90.2576C91.4908 19.3233 92.1909 20.35 92.1909 21.2278C92.1909 22.0889 91.4908 23.1323 90.2576 23.1323ZM90.2152 17.7767H86.2629V28.8889H87.9115V24.6789H90.2152C92.0433 24.6789 93.8404 23.3479 93.8404 21.2278C93.8404 19.1077 92.0433 17.7767 90.2152 17.7767ZM68.6629 27.6288C67.5234 27.6288 66.5693 26.6695 66.5693 25.3518C66.5693 24.0202 67.5234 23.0463 68.6629 23.0463C69.788 23.0463 70.6709 24.0202 70.6709 25.3518C70.6709 26.6695 69.788 27.6288 68.6629 27.6288ZM70.5569 22.4018H70.4999C70.1298 21.958 69.4174 21.557 68.5203 21.557C66.6405 21.557 64.9174 23.2181 64.9174 25.3518C64.9174 27.4712 66.6405 29.1181 68.5203 29.1181C69.4174 29.1181 70.1298 28.717 70.4999 28.2591H70.5569V28.8031C70.5569 30.2497 69.788 31.023 68.549 31.023C67.5379 31.023 66.9112 30.2924 66.6546 29.6767L65.2165 30.2782C65.6295 31.2806 66.7261 32.5122 68.549 32.5122C70.4858 32.5122 72.1235 31.3663 72.1235 28.574V21.7862H70.5569V22.4018ZM73.2627 28.8889H74.9147V17.7764H73.2627V28.8889ZM77.35 25.223C77.3073 23.7622 78.4751 23.0177 79.3152 23.0177C79.9708 23.0177 80.5259 23.3469 80.7107 23.8199L77.35 25.223ZM82.4768 23.9629C82.1639 23.1177 81.2092 21.557 79.2582 21.557C77.3214 21.557 75.7123 23.0893 75.7123 25.3375C75.7123 27.457 77.3073 29.1181 79.4433 29.1181C81.1668 29.1181 82.1639 28.0583 82.5767 27.4427L81.295 26.5833C80.868 27.2135 80.2837 27.6288 79.4433 27.6288C78.6032 27.6288 78.0051 27.2421 77.6204 26.4833L82.6474 24.3924L82.4768 23.9629ZM42.4254 22.717V24.3208H46.242C46.128 25.223 45.829 25.8816 45.3732 26.3399C44.818 26.8986 43.9492 27.5143 42.4254 27.5143C40.0755 27.5143 38.2385 25.6097 38.2385 23.2469C38.2385 20.884 40.0755 18.9792 42.4254 18.9792C43.6929 18.9792 44.6184 19.4806 45.302 20.125L46.4271 18.9938C45.473 18.0771 44.2054 17.3754 42.4254 17.3754C39.2067 17.3754 36.501 20.0104 36.501 23.2469C36.501 26.4833 39.2067 29.1181 42.4254 29.1181C44.1629 29.1181 45.473 28.5455 46.4982 27.4712C47.5521 26.4115 47.8798 24.9223 47.8798 23.7195C47.8798 23.3469 47.8514 23.0035 47.7941 22.717H42.4254ZM52.2189 27.6288C51.0794 27.6288 50.0966 26.6837 50.0966 25.3375C50.0966 23.9771 51.0794 23.0463 52.2189 23.0463C53.358 23.0463 54.3407 23.9771 54.3407 25.3375C54.3407 26.6837 53.358 27.6288 52.2189 27.6288ZM52.2189 21.557C50.1394 21.557 48.4447 23.1465 48.4447 25.3375C48.4447 27.5143 50.1394 29.1181 52.2189 29.1181C54.2979 29.1181 55.9927 27.5143 55.9927 25.3375C55.9927 23.1465 54.2979 21.557 52.2189 21.557ZM60.4516 27.6288C59.3125 27.6288 58.3297 26.6837 58.3297 25.3375C58.3297 23.9771 59.3125 23.0463 60.4516 23.0463C61.5907 23.0463 62.5735 23.9771 62.5735 25.3375C62.5735 26.6837 61.5907 27.6288 60.4516 27.6288ZM60.4516 21.557C58.3722 21.557 56.6778 23.1465 56.6778 25.3375C56.6778 27.5143 58.3722 29.1181 60.4516 29.1181C62.5307 29.1181 64.2254 27.5143 64.2254 25.3375C64.2254 23.1465 62.5307 21.557 60.4516 21.557Z" fill="white"/>
  <path d="M9.51141 31.0132L9.44573 30.95C9.18849 30.6763 9.03662 30.2513 9.03662 29.701V29.8305V10.1719C9.03662 10.1701 9.03662 10.1687 9.03662 10.1673C9.03662 10.169 9.03662 10.1704 9.03662 10.1722V10.3021C9.03662 9.70616 9.21368 9.25727 9.51034 8.98812L20.4627 20.001L9.51141 31.0132ZM9.03662 10.1663C9.03662 10.1173 9.03795 10.0697 9.04042 10.0229C9.03795 10.0694 9.03662 10.1173 9.03662 10.1663ZM9.04042 10.0207C9.04042 10.0201 9.04042 10.0194 9.04069 10.0187C9.04042 10.0194 9.04042 10.0201 9.04042 10.0207ZM9.04069 10.0145C9.04069 10.0142 9.04069 10.0138 9.04069 10.0135C9.04069 10.0138 9.04069 10.0142 9.04069 10.0145Z" fill="url(#paint0_linear)"/>
  <path d="M24.1129 23.8032L24.1961 23.7557L28.5213 21.2845C28.9337 21.0487 29.2085 20.763 29.3456 20.4606C29.2089 20.763 28.934 21.0491 28.5213 21.2848L24.1961 23.756L24.1129 23.8032V23.8032ZM24.1139 23.673L20.4626 20.0008L24.1136 16.3293L28.5213 18.8473C29.0811 19.1671 29.3953 19.5793 29.4478 20.0005C29.4478 20.0008 29.4478 20.0015 29.4478 20.0022C29.3953 20.4223 29.0811 20.8349 28.5213 21.1546L24.1139 23.673" fill="url(#paint1_linear)"/>
  <path d="M10.292 31.4321C9.98607 31.4321 9.71911 31.3321 9.51093 31.1432L9.51128 31.1429C9.71946 31.3318 9.98677 31.4321 10.2927 31.4321C10.3192 31.4321 10.3462 31.4314 10.3735 31.4301C10.3458 31.4314 10.3185 31.4321 10.292 31.4321V31.4321ZM10.2924 31.3019C9.98642 31.3023 9.71946 31.2019 9.51128 31.013V31.0128L20.4625 20.0006L24.1138 23.6728L11.2827 31.0037C10.9277 31.2061 10.5913 31.3019 10.2924 31.3019V31.3019ZM9.50819 31.1408C9.48883 31.1232 9.46982 31.1044 9.45117 31.0849L9.50819 31.1408Z" fill="url(#paint2_linear)"/>
  <path d="M20.4626 20.001L9.51025 8.98809C9.71843 8.79956 9.98504 8.69956 10.2906 8.69956C10.5904 8.69956 10.927 8.79573 11.2827 8.99849L24.1135 16.3294L20.4626 20.001V20.001ZM24.196 16.2465L11.2827 8.86871C10.927 8.66587 10.5904 8.56969 10.2906 8.56969C10.2892 8.56969 10.2882 8.56969 10.2868 8.56969C10.2886 8.56969 10.2899 8.56969 10.292 8.56969C10.5911 8.56969 10.9274 8.66551 11.2827 8.86835L24.196 16.2465V16.2465Z" fill="url(#paint3_linear)"/>
  <path d="M10.3737 31.4302C10.6516 31.4142 10.9593 31.318 11.2829 31.1336L24.1129 23.8031L11.2829 31.1336C10.9596 31.3184 10.6516 31.4142 10.3737 31.4302V31.4302ZM9.51113 31.1433L9.50839 31.1409C9.50936 31.1416 9.51042 31.1426 9.51113 31.1433ZM9.45137 31.085L9.4458 31.0795V31.0792C9.44792 31.0812 9.4496 31.0832 9.45137 31.085Z" fill="black"/>
  <path d="M24.1128 23.8032L24.1961 23.7557L24.1128 23.8032Z" fill="url(#paint4_linear)"/>
  <path d="M10.2929 31.4321C9.98697 31.4321 9.71966 31.3318 9.51148 31.1429L9.51113 31.1432C9.51042 31.1425 9.50936 31.1416 9.50839 31.1408L9.45137 31.0849C9.4496 31.0832 9.44792 31.0811 9.4458 31.0791L9.51148 31.013C9.71966 31.2019 9.98662 31.3023 10.2926 31.3019C10.5915 31.3019 10.9279 31.2061 11.2829 31.0037L24.114 23.6728L24.1962 23.7554L24.1129 23.803L11.2829 31.1336C10.9593 31.3179 10.6516 31.4141 10.3737 31.4301C10.3464 31.4314 10.3194 31.4321 10.2929 31.4321" fill="url(#paint5_linear)"/>
  <path d="M9.44573 31.0796C9.18849 30.8059 9.03662 30.3809 9.03662 29.8306V29.8303C9.03662 30.3809 9.18849 30.8055 9.44573 31.0792V31.0796" fill="black"/>
  <path d="M9.44573 31.0791C9.18849 30.8054 9.03662 30.3808 9.03662 29.8301V29.7006C9.03662 30.2509 9.18849 30.6759 9.44573 30.9496L9.51141 31.0128L9.44573 31.0791" fill="url(#paint6_linear)"/>
  <path d="M9.4458 31.0791L9.51148 31.0128V31.0131L9.4458 31.0791" fill="url(#paint7_linear)"/>
  <path d="M29.3457 20.4604C29.4137 20.3104 29.4479 20.1563 29.4479 20.0021C29.4479 20.0018 29.4479 20.0014 29.4479 20.0014C29.4479 20.1559 29.4137 20.31 29.3457 20.4604Z" fill="black"/>
  <path d="M24.196 23.7554L24.1138 23.6727L28.5212 21.1543C29.0809 20.8346 29.3952 20.422 29.4477 20.0019C29.4477 20.1561 29.4135 20.3102 29.3455 20.4603C29.2084 20.7627 28.9336 21.0484 28.5212 21.2842L24.196 23.7554Z" fill="url(#paint8_linear)"/>
  <path d="M29.4479 20.0005V20.0001C29.4475 19.5352 29.1385 19.0703 28.5214 18.7175L24.1962 16.2463H24.1958L24.1962 16.246L28.5214 18.7171C29.1392 19.0699 29.4486 19.5355 29.4479 20.0005Z" fill="#404040"/>
  <path d="M29.4478 20.0005C29.3953 19.5793 29.081 19.1672 28.5213 18.8473L24.1135 16.3293L24.1957 16.2466H24.1961L28.5213 18.7178C29.1384 19.0706 29.4474 19.5355 29.4478 20.0005Z" fill="url(#paint9_linear)"/>
  <path d="M9.03662 10.167C9.03662 10.1666 9.03662 10.1663 9.03662 10.1659C9.03662 10.1663 9.03662 10.1666 9.03662 10.167ZM9.04042 10.0225C9.04042 10.0218 9.04042 10.0211 9.04042 10.0204C9.04042 10.0211 9.04042 10.0218 9.04042 10.0225ZM9.04069 10.0184C9.04069 10.0169 9.04069 10.0156 9.04069 10.0142C9.04069 10.0156 9.04069 10.0169 9.04069 10.0184ZM9.04069 10.0131C9.09187 9.09997 9.58566 8.5725 10.2842 8.56939C9.98133 8.57117 9.71755 8.67117 9.51105 8.85828V8.85793L9.50858 8.86041C9.48683 8.88015 9.46614 8.90104 9.44573 8.92255C9.21368 9.16939 9.06729 9.53917 9.04069 10.0131Z" fill="#404040"/>
  <path d="M9.03662 10.3018V10.1719C9.03662 10.1701 9.03662 10.1687 9.03662 10.167C9.03662 10.1666 9.03662 10.1663 9.03662 10.1659C9.03662 10.117 9.03795 10.069 9.04042 10.0226C9.04042 10.0218 9.04042 10.0211 9.04042 10.0204C9.04042 10.0198 9.04042 10.0191 9.04069 10.0184C9.04069 10.017 9.04069 10.0156 9.04069 10.0142C9.04069 10.0138 9.04069 10.0135 9.04069 10.0131C9.06729 9.53918 9.21368 9.1694 9.44573 8.92256L9.51034 8.9878C9.21368 9.25696 9.03662 9.70585 9.03662 10.3018V10.3018ZM9.50858 8.86042L9.51105 8.85794C9.51034 8.859 9.50928 8.85971 9.50858 8.86042Z" fill="url(#paint10_linear)"/>
  <path d="M24.1136 16.3291L11.2829 8.99817C10.9272 8.79541 10.5906 8.69923 10.2908 8.69923C9.9852 8.69923 9.7186 8.79924 9.51042 8.98777L9.4458 8.92252C9.46622 8.90101 9.48691 8.88012 9.50865 8.86039C9.50936 8.85968 9.51042 8.85897 9.51113 8.85826C9.71762 8.67115 9.9814 8.57115 10.2843 8.56937C10.285 8.56937 10.2859 8.56937 10.287 8.56937C10.2884 8.56937 10.2894 8.56937 10.2908 8.56937C10.5906 8.56937 10.9272 8.66554 11.2829 8.86839L24.1962 16.2462L24.1959 16.2464L24.1136 16.3291Z" fill="url(#paint11_linear)"/>
  <defs>
    <linearGradient id="paint0_linear" x1="19.4915" y1="9.96447" x2="4.57397" y2="24.7996" gradientUnits="userSpaceOnUse">
      <stop stop-color="#00A0FF"/>
      <stop offset="0.00657445" stop-color="#00A1FF"/>
      <stop offset="0.2601" stop-color="#00BEFF"/>
      <stop offset="0.5122" stop-color="#00D2FF"/>
      <stop offset="0.7604" stop-color="#00DFFF"/>
      <stop offset="1" stop-color="#00E3FF"/>
    </linearGradient>
    <linearGradient id="paint1_linear" x1="30.1298" y1="20.0014" x2="8.74022" y2="20.0014" gradientUnits="userSpaceOnUse">
      <stop stop-color="#FFE000"/>
      <stop offset="0.4087" stop-color="#FFBD00"/>
      <stop offset="0.7754" stop-color="#FFA500"/>
      <stop offset="1" stop-color="#FF9C00"/>
    </linearGradient>
    <linearGradient id="paint2_linear" x1="22.1674" y1="22.0408" x2="1.93808" y2="42.1584" gradientUnits="userSpaceOnUse">
      <stop stop-color="#FF3A44"/>
      <stop offset="1" stop-color="#C31162"/>
    </linearGradient>
    <linearGradient id="paint3_linear" x1="6.67154" y1="2.37911" x2="15.7047" y2="11.3624" gradientUnits="userSpaceOnUse">
      <stop stop-color="#32A071"/>
      <stop offset="0.0685" stop-color="#2DA771"/>
      <stop offset="0.4762" stop-color="#15CF74"/>
      <stop offset="0.8009" stop-color="#06E775"/>
      <stop offset="1" stop-color="#00F076"/>
    </linearGradient>
    <linearGradient id="paint4_linear" x1="30.1296" y1="20.0016" x2="8.74045" y2="20.0016" gradientUnits="userSpaceOnUse">
      <stop stop-color="#CCB300"/>
      <stop offset="0.4087" stop-color="#CC9700"/>
      <stop offset="0.7754" stop-color="#CC8400"/>
      <stop offset="1" stop-color="#CC7D00"/>
    </linearGradient>
    <linearGradient id="paint5_linear" x1="22.1676" y1="22.0408" x2="1.93828" y2="42.1584" gradientUnits="userSpaceOnUse">
      <stop stop-color="#CC2E36"/>
      <stop offset="1" stop-color="#9C0E4E"/>
    </linearGradient>
    <linearGradient id="paint6_linear" x1="19.4915" y1="9.96409" x2="4.57398" y2="24.7992" gradientUnits="userSpaceOnUse">
      <stop stop-color="#008DE0"/>
      <stop offset="0.00657445" stop-color="#008DE0"/>
      <stop offset="0.2601" stop-color="#00A7E0"/>
      <stop offset="0.5122" stop-color="#00B8E0"/>
      <stop offset="0.7604" stop-color="#00C4E0"/>
      <stop offset="1" stop-color="#00C7E0"/>
    </linearGradient>
    <linearGradient id="paint7_linear" x1="22.1679" y1="22.0412" x2="1.93929" y2="42.1593" gradientUnits="userSpaceOnUse">
      <stop stop-color="#E0333C"/>
      <stop offset="1" stop-color="#AB0F56"/>
    </linearGradient>
    <linearGradient id="paint8_linear" x1="30.1297" y1="20.0011" x2="8.74008" y2="20.0011" gradientUnits="userSpaceOnUse">
      <stop stop-color="#E0C500"/>
      <stop offset="0.4087" stop-color="#E0A600"/>
      <stop offset="0.7754" stop-color="#E09100"/>
      <stop offset="1" stop-color="#E08900"/>
    </linearGradient>
    <linearGradient id="paint9_linear" x1="30.1298" y1="20.0014" x2="8.74018" y2="20.0014" gradientUnits="userSpaceOnUse">
      <stop stop-color="#FFE840"/>
      <stop offset="0.4087" stop-color="#FFCE40"/>
      <stop offset="0.7754" stop-color="#FFBC40"/>
      <stop offset="1" stop-color="#FFB540"/>
    </linearGradient>
    <linearGradient id="paint10_linear" x1="19.4915" y1="9.96416" x2="4.57396" y2="24.7993" gradientUnits="userSpaceOnUse">
      <stop stop-color="#40B8FF"/>
      <stop offset="0.00657445" stop-color="#40B9FF"/>
      <stop offset="0.2601" stop-color="#40CEFF"/>
      <stop offset="0.5122" stop-color="#40DDFF"/>
      <stop offset="0.7604" stop-color="#40E7FF"/>
      <stop offset="1" stop-color="#40EAFF"/>
    </linearGradient>
    <linearGradient id="paint11_linear" x1="6.6717" y1="2.37879" x2="15.7049" y2="11.3621" gradientUnits="userSpaceOnUse">
      <stop stop-color="#65B895"/>
      <stop offset="0.0685" stop-color="#62BD95"/>
      <stop offset="0.4762" stop-color="#50DB97"/>
      <stop offset="0.8009" stop-color="#44ED98"/>
      <stop offset="1" stop-color="#40F498"/>
    </linearGradient>
  </defs>
</svg>
