<?xml version="1.0" encoding="UTF-8" standalone="no"?>
<!DOCTYPE svg PUBLIC "-//W3C//DTD SVG 1.1//EN" "http://www.w3.org/Graphics/SVG/1.1/DTD/svg11.dtd">
<svg width="100%" height="100%" viewBox="0 0 2638 602" version="1.1" xmlns="http://www.w3.org/2000/svg" xmlns:xlink="http://www.w3.org/1999/xlink" xml:space="preserve" xmlns:serif="http://www.serif.com/" style="fill-rule:evenodd;clip-rule:evenodd;stroke-linejoin:round;stroke-miterlimit:1.41421;">
<g transform="matrix(4.16667,0,0,4.16667,0,0)">
<path d="M186.421 35.75L182.896 47.15H194.671L191.146 35.75C190.946 35.3 190.721 34.975 190.471 34.775C190.271 34.575 190.021 34.475 189.721 34.475H187.846C187.546 34.475 187.271 34.575 187.021 34.775C186.821 34.975 186.621 35.3 186.421 35.75ZM182.146 71.3C182.146 72.25 181.921 72.95 181.471 73.4C181.071 73.8 180.396 74 179.446 74H168.421C167.471 74 166.771 73.8 166.321 73.4C165.921 72.95 165.721 72.25 165.721 71.3V51.5C165.721 50 165.946 48.275 166.396 46.325C166.896 44.375 167.646 42.1 168.646 39.5L175.171 22.475C175.471 21.625 175.921 21 176.521 20.6C177.171 20.2 177.996 20 178.996 20H199.171C200.121 20 200.896 20.2 201.496 20.6C202.146 21 202.621 21.625 202.921 22.475L209.446 39.5C210.446 42.1 211.171 44.375 211.621 46.325C212.121 48.275 212.371 50 212.371 51.5V71.3C212.371 72.25 212.146 72.95 211.696 73.4C211.296 73.8 210.621 74 209.671 74H198.346C197.346 74 196.596 73.8 196.096 73.4C195.646 72.95 195.421 72.25 195.421 71.3V60.8H182.146V71.3ZM238.581 33.5V43.1H244.206C245.506 43.1 246.381 42.775 246.831 42.125C247.281 41.425 247.506 40.575 247.506 39.575V37.025C247.506 36.025 247.281 35.2 246.831 34.55C246.381 33.85 245.506 33.5 244.206 33.5H238.581ZM235.881 74H224.331C223.381 74 222.681 73.8 222.231 73.4C221.831 72.95 221.631 72.25 221.631 71.3V22.7C221.631 21.75 221.831 21.075 222.231 20.675C222.681 20.225 223.381 20 224.331 20H249.306C254.906 20 258.756 21.175 260.856 23.525C263.006 25.825 264.081 28.825 264.081 32.525V35.975C264.081 38.075 263.756 39.875 263.106 41.375C262.506 42.825 261.431 43.875 259.881 44.525C262.581 44.825 264.756 45.925 266.406 47.825C268.106 49.725 268.956 52.25 268.956 55.4V71.3C268.956 72.25 268.731 72.95 268.281 73.4C267.881 73.8 267.206 74 266.256 74H254.631C253.681 74 252.981 73.8 252.531 73.4C252.131 72.95 251.931 72.25 251.931 71.3V59.825C251.931 58.725 251.706 57.925 251.256 57.425C250.856 56.875 250.131 56.6 249.081 56.6H238.581V71.3C238.581 72.25 238.356 72.95 237.906 73.4C237.506 73.8 236.831 74 235.881 74ZM312.927 74H294.627C288.377 74 283.727 72.75 280.677 70.25C277.677 67.75 276.177 63.9 276.177 58.7V35.375C276.177 30.175 277.677 26.325 280.677 23.825C283.727 21.275 288.377 20 294.627 20H312.927C313.877 20 314.552 20.225 314.952 20.675C315.402 21.075 315.627 21.75 315.627 22.7V31.775C315.627 32.725 315.402 33.425 314.952 33.875C314.552 34.275 313.877 34.475 312.927 34.475H297.852C296.302 34.475 295.152 34.8 294.402 35.45C293.652 36.05 293.277 36.975 293.277 38.225V56.075C293.277 57.325 293.652 58.25 294.402 58.85C295.152 59.4 296.302 59.675 297.852 59.675H312.927C313.877 59.675 314.552 59.9 314.952 60.35C315.402 60.75 315.627 61.425 315.627 62.375V71.3C315.627 72.25 315.402 72.95 314.952 73.4C314.552 73.8 313.877 74 312.927 74ZM343.672 35.75L340.147 47.15H351.922L348.397 35.75C348.197 35.3 347.972 34.975 347.722 34.775C347.522 34.575 347.272 34.475 346.972 34.475H345.097C344.797 34.475 344.522 34.575 344.272 34.775C344.072 34.975 343.872 35.3 343.672 35.75ZM339.397 71.3C339.397 72.25 339.172 72.95 338.722 73.4C338.322 73.8 337.647 74 336.697 74H325.672C324.722 74 324.022 73.8 323.572 73.4C323.172 72.95 322.972 72.25 322.972 71.3V51.5C322.972 50 323.197 48.275 323.647 46.325C324.147 44.375 324.897 42.1 325.897 39.5L332.422 22.475C332.722 21.625 333.172 21 333.772 20.6C334.422 20.2 335.247 20 336.247 20H356.422C357.372 20 358.147 20.2 358.747 20.6C359.397 21 359.872 21.625 360.172 22.475L366.697 39.5C367.697 42.1 368.422 44.375 368.872 46.325C369.372 48.275 369.622 50 369.622 51.5V71.3C369.622 72.25 369.397 72.95 368.947 73.4C368.547 73.8 367.872 74 366.922 74H355.597C354.597 74 353.847 73.8 353.347 73.4C352.897 72.95 352.672 72.25 352.672 71.3V60.8H339.397V71.3ZM406.857 74H381.582C380.632 74 379.932 73.8 379.482 73.4C379.082 72.95 378.882 72.25 378.882 71.3V22.7C378.882 21.75 379.082 21.075 379.482 20.675C379.932 20.225 380.632 20 381.582 20H406.857C413.107 20 417.732 21.25 420.732 23.75C423.782 26.25 425.307 30.1 425.307 35.3V58.7C425.307 63.9 423.782 67.75 420.732 70.25C417.732 72.75 413.107 74 406.857 74ZM395.907 34.325V59.825H404.832C406.032 59.825 406.907 59.525 407.457 58.925C408.057 58.325 408.357 57.4 408.357 56.15V37.925C408.357 36.675 408.057 35.775 407.457 35.225C406.907 34.625 406.032 34.325 404.832 34.325H395.907ZM436.339 74C435.389 74 434.689 73.8 434.239 73.4C433.839 72.95 433.639 72.25 433.639 71.3V62.375C433.639 61.425 433.839 60.75 434.239 60.35C434.689 59.9 435.389 59.675 436.339 59.675H443.764V34.475H436.339C435.389 34.475 434.689 34.275 434.239 33.875C433.839 33.425 433.639 32.725 433.639 31.775V22.7C433.639 21.75 433.839 21.075 434.239 20.675C434.689 20.225 435.389 20 436.339 20H468.289C469.239 20 469.914 20.225 470.314 20.675C470.764 21.075 470.989 21.75 470.989 22.7V31.775C470.989 32.725 470.764 33.425 470.314 33.875C469.914 34.275 469.239 34.475 468.289 34.475H461.014V59.675H468.289C469.239 59.675 469.914 59.9 470.314 60.35C470.764 60.75 470.989 61.425 470.989 62.375V71.3C470.989 72.25 470.764 72.95 470.314 73.4C469.914 73.8 469.239 74 468.289 74H436.339ZM499.824 35.75L496.299 47.15H508.074L504.549 35.75C504.349 35.3 504.124 34.975 503.874 34.775C503.674 34.575 503.424 34.475 503.124 34.475H501.249C500.949 34.475 500.674 34.575 500.424 34.775C500.224 34.975 500.024 35.3 499.824 35.75ZM495.549 71.3C495.549 72.25 495.324 72.95 494.874 73.4C494.474 73.8 493.799 74 492.849 74H481.824C480.874 74 480.174 73.8 479.724 73.4C479.324 72.95 479.124 72.25 479.124 71.3V51.5C479.124 50 479.349 48.275 479.799 46.325C480.299 44.375 481.049 42.1 482.049 39.5L488.574 22.475C488.874 21.625 489.324 21 489.924 20.6C490.574 20.2 491.399 20 492.399 20H512.574C513.524 20 514.299 20.2 514.899 20.6C515.549 21 516.024 21.625 516.324 22.475L522.849 39.5C523.849 42.1 524.574 44.375 525.024 46.325C525.524 48.275 525.774 50 525.774 51.5V71.3C525.774 72.25 525.549 72.95 525.099 73.4C524.699 73.8 524.024 74 523.074 74H511.749C510.749 74 509.999 73.8 509.499 73.4C509.049 72.95 508.824 72.25 508.824 71.3V60.8H495.549V71.3ZM548.984 74H537.734C536.784 74 536.084 73.8 535.634 73.4C535.234 72.95 535.034 72.25 535.034 71.3V22.7C535.034 21.75 535.234 21.075 535.634 20.675C536.084 20.225 536.784 20 537.734 20H545.534C546.484 20 547.284 20.15 547.934 20.45C548.634 20.75 549.309 21.275 549.959 22.025L564.509 38.675V22.7C564.509 21.75 564.709 21.075 565.109 20.675C565.559 20.225 566.259 20 567.209 20H578.459C579.409 20 580.084 20.225 580.484 20.675C580.934 21.075 581.159 21.75 581.159 22.7V71.3C581.159 72.25 580.934 72.95 580.484 73.4C580.084 73.8 579.409 74 578.459 74H567.209C566.259 74 565.559 73.8 565.109 73.4C564.709 72.95 564.509 72.25 564.509 71.3V62.075L551.684 46.55V71.3C551.684 72.25 551.459 72.95 551.009 73.4C550.609 73.8 549.934 74 548.984 74ZM348.296 119H325.391C324.821 119 324.401 118.88 324.131 118.64C323.891 118.37 323.771 117.95 323.771 117.38V88.22C323.771 87.65 323.891 87.245 324.131 87.005C324.401 86.735 324.821 86.6 325.391 86.6H332.366C332.936 86.6 333.341 86.735 333.581 87.005C333.851 87.245 333.986 87.65 333.986 88.22V110.495H340.151V103.205C340.151 102.635 340.271 102.23 340.511 101.99C340.781 101.72 341.201 101.585 341.771 101.585H348.296C348.866 101.585 349.271 101.72 349.511 101.99C349.781 102.23 349.916 102.635 349.916 103.205V117.38C349.916 117.95 349.781 118.37 349.511 118.64C349.271 118.88 348.866 119 348.296 119ZM371.755 96.05L369.64 102.89H376.705L374.59 96.05C374.47 95.78 374.335 95.585 374.185 95.465C374.065 95.345 373.915 95.285 373.735 95.285H372.61C372.43 95.285 372.265 95.345 372.115 95.465C371.995 95.585 371.875 95.78 371.755 96.05ZM369.19 117.38C369.19 117.95 369.055 118.37 368.785 118.64C368.545 118.88 368.14 119 367.57 119H360.955C360.385 119 359.965 118.88 359.695 118.64C359.455 118.37 359.335 117.95 359.335 117.38V105.5C359.335 104.6 359.47 103.565 359.74 102.395C360.04 101.225 360.49 99.86 361.09 98.3L365.005 88.085C365.185 87.575 365.455 87.2 365.815 86.96C366.205 86.72 366.7 86.6 367.3 86.6H379.405C379.975 86.6 380.44 86.72 380.8 86.96C381.19 87.2 381.475 87.575 381.655 88.085L385.57 98.3C386.17 99.86 386.605 101.225 386.875 102.395C387.175 103.565 387.325 104.6 387.325 105.5V117.38C387.325 117.95 387.19 118.37 386.92 118.64C386.68 118.88 386.275 119 385.705 119H378.91C378.31 119 377.86 118.88 377.56 118.64C377.29 118.37 377.155 117.95 377.155 117.38V111.08H369.19V117.38ZM416.731 119H399.451C398.881 119 398.461 118.88 398.191 118.64C397.951 118.37 397.831 117.95 397.831 117.38V88.22C397.831 87.65 397.951 87.245 398.191 87.005C398.461 86.735 398.881 86.6 399.451 86.6H413.806C416.746 86.6 418.921 87.17 420.331 88.31C421.741 89.42 422.446 91.145 422.446 93.485V95.645C422.446 96.905 422.221 97.94 421.771 98.75C421.351 99.53 420.691 100.115 419.791 100.505C421.711 100.685 423.136 101.345 424.066 102.485C424.996 103.625 425.461 105.29 425.461 107.48V111.62C425.461 114.14 424.741 116 423.301 117.2C421.891 118.4 419.701 119 416.731 119ZM407.956 94.25V99.11H411.781C412.351 99.11 412.771 98.96 413.041 98.66C413.341 98.36 413.491 97.91 413.491 97.31V96.05C413.491 95.45 413.341 95 413.041 94.7C412.771 94.4 412.351 94.25 411.781 94.25H407.956ZM407.956 106.04V111.35H413.806C414.376 111.35 414.796 111.2 415.066 110.9C415.366 110.6 415.516 110.15 415.516 109.55V107.795C415.516 107.195 415.366 106.76 415.066 106.49C414.796 106.19 414.376 106.04 413.806 106.04H407.956Z" style="fill:#000;fill-rule:nonzero;"/>
<path d="M19.1063 101.981C10.6194 116.648 21.2029 135 38.1481 135H52.0718C58.4398 135 64.3278 131.615 67.5317 126.111V126.111C70.7627 120.561 70.771 113.705 67.5533 108.148L60.583 96.1086C52.1081 81.4707 30.9734 81.4732 22.502 96.1131L19.1063 101.981Z" style="fill:#000;fill-rule:nonzero;"/>
<path d="M104.483 133.004C105.198 134.239 106.518 135 107.945 135H149.157C152.238 135 154.162 131.663 152.619 128.996L81.4239 5.9818C79.8834 3.31999 76.0404 3.32 74.4999 5.9818L53.894 41.5857C53.1767 42.8251 53.1767 44.3535 53.894 45.593L104.483 133.004Z" style="fill:#000;fill-rule:nonzero;"/>
</g>
</svg>