<svg width="592" height="136" viewBox="0 0 592 136" fill="none" xmlns="http://www.w3.org/2000/svg">
<path d="M444.964 74.1139V0.541748C432.521 0.541748 431.16 0.701469 430.883 1.39727C430.698 1.86492 430.549 7.7678 430.549 14.5147V26.7768C425.855 23.2522 423.324 21.8321 421.899 21.3587C420.343 20.834 417.235 20.4918 414.115 20.4861C410.367 20.4861 407.963 20.8112 405.466 21.6667C403.563 22.3111 401.095 23.3833 399.988 24.0392C398.875 24.7008 396.724 26.4175 395.202 27.8604C393.68 29.3034 391.679 31.636 390.757 33.0504C389.834 34.4591 388.548 37.1567 387.897 39.0388C387.026 41.5482 386.709 43.9037 386.703 47.8789C386.703 51.2495 387.037 54.2665 387.585 55.8635C388.07 57.2721 389.05 59.582 389.759 60.9907C390.468 62.3937 392.734 65.2225 394.799 67.27C396.857 69.3175 399.844 71.6159 401.43 72.3687C403.015 73.1215 405.61 74.0797 407.196 74.4904C408.782 74.901 411.895 75.2489 414.115 75.2546C416.335 75.2603 419.512 74.8782 421.179 74.4048C422.845 73.9314 424.892 72.9675 425.74 72.2603L427.268 70.9771C423.652 64.3442 422.251 62.2625 421.819 62.0743C421.386 61.8804 420.516 61.9261 419.881 62.177C419.247 62.4222 417.431 62.6389 415.845 62.656C413.81 62.6788 412.039 62.2283 409.825 61.1276C407.842 60.1466 405.962 58.6238 404.734 57.0041C403.655 55.5897 402.381 53.0232 401.891 51.3009C401.176 48.7629 401.13 47.5938 401.649 45.1698C402.006 43.5216 402.906 41.2118 403.65 40.0369C404.393 38.862 405.95 37.0655 407.109 36.0446C408.268 35.0237 410.315 33.9059 411.665 33.558C413.054 33.193 415.678 33.0732 417.719 33.2728C419.968 33.4895 422.026 34.0827 423.197 34.8526C424.229 35.5313 425.682 36.6263 426.426 37.2765C427.175 37.9324 428.409 39.7518 429.176 41.3202C430.537 44.1148 430.566 44.4855 430.554 59.1429L430.549 74.1139H444.964Z" fill="black"/>
<path d="M466.01 1.39727C465.774 0.701469 464.442 0.541748 458.791 0.541748C453.555 0.541748 451.785 0.729959 451.578 1.29459C451.428 1.71092 451.37 4.47129 451.451 7.42559L451.595 12.8038C463.588 13.0548 465.549 12.9064 465.855 12.3817C466.091 11.9882 466.287 9.5472 466.287 6.95794C466.293 4.36864 466.166 1.86492 466.01 1.39727Z" fill="black"/>
<path d="M192.696 20.5374C197.372 20.5317 199.062 20.7712 201.634 21.8149C203.375 22.5221 205.676 23.8681 206.737 24.7978C207.792 25.7274 208.83 26.4346 209.043 26.3662C209.251 26.2977 209.545 25.2711 209.994 21.929L224.121 21.6439V74.1139H217.202C210.496 74.1139 210.271 74.074 209.994 72.8307C209.839 72.1235 209.643 65.2568 209.562 57.5744C209.429 44.9132 209.308 43.3904 208.265 41.3259C207.63 40.0768 206.27 38.2175 205.237 37.191C204.205 36.1701 202.522 34.9097 201.489 34.402C200.457 33.8888 198.185 33.347 196.444 33.193C194.697 33.0447 192.171 33.2101 190.822 33.558C189.473 33.9059 187.282 35.0237 185.955 36.0446C184.606 37.0769 182.796 39.284 181.862 41.035C180.351 43.8694 180.212 44.5824 180.432 48.4492C180.622 51.797 180.991 53.2228 182.15 55.0079C182.963 56.2627 184.37 57.9794 185.281 58.8292C186.186 59.6733 188.227 60.9223 189.813 61.6066C192.137 62.6047 193.526 62.8043 201.23 62.4222L202.372 64.4184L204.592 68.4106C205.185 69.5057 205.676 70.7262 205.67 71.1197C205.67 71.5133 204.176 72.5341 202.354 73.3896C199.765 74.6101 197.966 75.0036 194.138 75.1748C190.367 75.3515 188.308 75.1291 185.2 74.228C182.98 73.5778 179.734 72.095 177.992 70.9258C176.245 69.7623 173.829 67.7548 172.624 66.4715C171.413 65.1826 169.776 62.9755 168.98 61.5667C168.184 60.1524 166.996 57.3293 166.339 55.2931C165.382 52.3104 165.203 50.6393 165.44 46.7382C165.607 44.0691 166.218 40.476 166.806 38.7537C167.394 37.0255 168.934 34.077 170.231 32.1949C171.529 30.3128 174.037 27.6152 175.807 26.2065C177.577 24.792 180.806 22.9442 182.98 22.0944C186.336 20.7826 187.801 20.5488 192.696 20.5374Z" fill="black"/>
<path d="M270.539 21.4271C268.636 20.8055 265.793 20.5032 262.178 20.526C258.436 20.5545 255.939 20.8739 254.296 21.5355C252.969 22.0659 250.836 23.2693 249.55 24.2103C248.264 25.1514 247.203 26.1779 247.192 26.4916C247.18 26.8053 246.915 26.6741 246.609 26.2065C246.304 25.7331 246.044 24.5183 246.044 23.4974L246.033 21.6439H231.617V74.1139H246.033C246.044 44.6052 246.085 44.0862 247.405 41.3202C248.149 39.7518 249.383 37.9324 250.138 37.2765C250.894 36.6263 252.352 35.5313 253.385 34.8526C254.624 34.0428 256.579 33.5009 259.151 33.2785C261.901 33.0333 263.717 33.1759 265.349 33.7747C266.618 34.2367 267.967 34.4534 268.353 34.2595C268.734 34.0656 270.371 31.596 271.992 28.7729C274.367 24.638 274.794 23.5145 274.183 23.0012C273.762 22.6476 272.124 21.9404 270.539 21.4271Z" fill="black"/>
<path d="M297.64 20.5317C301.428 20.4975 304.294 20.7769 306 21.353C307.425 21.8321 309.76 22.8016 311.19 23.5031C312.614 24.2046 315.082 26.0639 316.668 27.6323C318.253 29.2007 320.006 31.0599 320.56 31.7671C321.113 32.4743 321.436 33.4325 321.281 33.9059C321.119 34.3735 318.853 36.1758 316.235 37.8982C313.617 39.6263 311.086 41.0293 310.613 41.0122C310.135 41.0007 309.091 40.0369 308.284 38.8734C307.482 37.71 305.816 35.9876 304.582 35.0466C302.546 33.4896 301.947 33.3355 297.974 33.3355C294.266 33.3355 293.298 33.5466 291.585 34.7329C290.472 35.5028 289.088 36.6606 288.5 37.2994C287.912 37.9438 286.776 39.7518 285.969 41.3202C284.839 43.5045 284.499 45.0387 284.493 47.8789C284.493 50.4111 284.868 52.3959 285.675 54.1525C286.326 55.5612 287.728 57.5973 288.788 58.6752C289.849 59.7531 291.758 61.0933 293.027 61.658C294.295 62.2226 296.434 62.6903 297.784 62.696C299.191 62.7017 301.583 62.1028 303.406 61.2816C305.735 60.2322 307.038 59.1713 308.307 57.2892C309.258 55.8749 310.36 54.8141 310.757 54.9224C311.155 55.0365 313.75 56.5763 316.524 58.3444C319.297 60.1181 321.569 61.9488 321.569 62.4222C321.569 62.8899 320.179 64.7549 318.484 66.5571C316.783 68.3593 313.865 70.6463 311.997 71.6387C310.123 72.6311 307.038 73.8801 305.135 74.4219C302.575 75.1462 300.332 75.3287 296.486 75.1291C292.94 74.9409 290.201 74.4333 287.837 73.5208C285.934 72.7851 282.838 71.0114 280.958 69.5855C279.078 68.154 276.559 65.5704 275.359 63.848C274.16 62.12 272.522 58.9774 271.715 56.8615C270.55 53.8046 270.25 51.9852 270.256 48.0215C270.262 45.1642 270.642 41.8106 271.15 40.1795C271.64 38.611 272.868 35.8164 273.883 33.9629C274.898 32.115 277.17 29.2919 278.928 27.6893C280.687 26.0923 283.282 24.2046 284.695 23.4974C286.107 22.7959 288.298 21.8492 289.567 21.4043C290.933 20.9138 294.22 20.5602 297.64 20.5317Z" fill="black"/>
<path d="M356.742 21.3587C355.11 20.8112 352.112 20.4975 348.67 20.5146C344.132 20.5317 342.552 20.794 339.444 22.0316C337.38 22.8529 334.658 24.2217 333.389 25.0772C332.121 25.927 329.947 27.8775 328.563 29.4117C327.179 30.9402 325.455 33.347 324.734 34.7613C324.008 36.1701 322.976 38.8677 322.428 40.7498C321.702 43.2535 321.505 45.552 321.684 49.3047C321.857 52.9149 322.336 55.4528 323.304 57.8596C324.06 59.7417 325.859 62.81 327.3 64.675C328.748 66.54 331.55 69.1692 333.534 70.5209C335.65 71.9581 338.862 73.4752 341.318 74.1938C344.622 75.1576 346.525 75.363 350.399 75.1634C354.147 74.9694 356.085 74.5474 358.616 73.3725C360.438 72.5227 361.926 71.5133 361.914 71.1197C361.903 70.7262 360.865 68.5475 359.608 66.2719L357.319 62.137C350.878 62.7416 348.739 62.6161 347.228 62.137C345.959 61.7321 343.97 60.734 342.805 59.9185C341.646 59.0972 339.905 57.2721 338.948 55.8635C337.985 54.449 336.895 52.1392 336.526 50.7305C336.013 48.7458 336.025 47.4568 336.59 45.0272C336.987 43.2991 337.922 40.9266 338.665 39.7518C339.409 38.5769 341.122 36.8317 342.471 35.8735C343.82 34.9211 345.959 33.866 347.228 33.5295C348.497 33.1987 351.091 33.0732 352.994 33.25C355.577 33.4952 357.111 34.0313 359.049 35.3602C360.473 36.3355 362.335 38.0807 363.183 39.227C364.025 40.3791 364.994 42.4722 365.328 43.8866C365.668 45.3124 365.945 52.6011 365.956 60.2835L365.968 74.1139H380.383V21.6439H365.968L365.391 26.7768C360.698 23.2522 358.166 21.8321 356.742 21.3587Z" fill="black"/>
<path d="M498.589 20.5431C502.458 20.5089 504.885 20.7884 506.852 21.5013C508.385 22.0488 510.917 23.4632 515.31 26.7768V25.0658C515.31 24.1248 515.437 22.967 515.599 22.4993C515.835 21.7978 517.202 21.6439 530.302 21.6439V74.1139H523.095C517.202 74.1139 515.835 73.9599 515.599 73.2584C515.437 72.7851 515.31 65.8556 515.31 57.8596C515.31 44.7307 515.207 43.1052 514.221 41.1775C513.621 40.0026 512.387 38.3087 511.482 37.419C510.577 36.5293 508.922 35.269 507.815 34.6131C506.696 33.9572 504.39 33.3184 502.625 33.1758C500.878 33.039 498.416 33.1987 497.147 33.5295C495.879 33.866 493.739 34.9211 492.39 35.8735C491.041 36.8317 489.328 38.5769 488.585 39.7518C487.841 40.9266 486.907 43.2991 486.509 45.0272C485.932 47.4911 485.926 48.7116 486.468 50.7305C486.849 52.1392 487.524 54.0042 487.973 54.8654C488.423 55.7265 489.64 57.2665 490.689 58.2873C491.733 59.3083 493.613 60.6542 494.87 61.2816C496.634 62.1656 498.289 62.4222 507.301 62.4222L509.573 66.5571C510.824 68.8327 511.73 71.0114 511.586 71.4049C511.436 71.7984 509.942 72.7394 508.27 73.498C506.067 74.496 503.859 74.9523 500.319 75.1405C496.738 75.3287 494.483 75.1348 491.958 74.4105C490.055 73.8687 487.264 72.8078 485.759 72.0608C484.254 71.3079 481.463 69.1521 479.561 67.27C477.658 65.3879 475.421 62.5021 474.584 60.8538C473.748 59.2056 472.71 56.7019 472.284 55.2931C471.851 53.8787 471.5 50.6735 471.5 48.164C471.5 45.6546 471.851 42.3182 472.278 40.7498C472.705 39.1814 473.662 36.615 474.406 35.0466C475.155 33.4554 477.427 30.5466 479.532 28.4763C481.608 26.4346 484.473 24.1875 485.903 23.4917C487.328 22.7902 489.536 21.8492 490.805 21.4043C492.148 20.9252 495.4 20.5659 498.589 20.5431Z" fill="black"/>
<path d="M580.468 22.2769C577.706 20.9994 576.408 20.7884 570.377 20.6515C565.793 20.5489 562.777 20.7427 561.44 21.2275C560.327 21.6324 558.51 22.4822 557.403 23.1153C556.29 23.7483 555.304 24.7692 555.206 25.3795C555.108 25.9897 556.048 28.157 557.299 30.1987C559.185 33.2671 559.808 33.8774 560.938 33.7405L565.764 33.2386C567.736 33.0504 570.152 33.1816 571.386 33.5466C572.741 33.9515 574.142 34.9724 575.134 36.2841L576.72 38.3772L577.296 73.8288L592 74.1139C592 45.0272 591.792 40.0711 591.135 37.0427C590.656 34.8469 589.647 31.8299 588.88 30.3413C588.114 28.8528 586.626 26.7597 585.565 25.6875C584.504 24.621 582.209 23.0868 580.468 22.2769Z" fill="black"/>
<path d="M451.295 21.6439H458.508C464.407 21.6439 465.774 21.7978 466.01 22.4993C466.166 22.967 466.293 34.4534 466.287 48.0215C466.287 61.5896 466.091 73.0132 465.855 73.4067C465.549 73.9314 463.588 74.0797 451.595 73.8288L451.295 21.6439Z" fill="black"/>
<path d="M552.214 21.6439H537.21L537.51 73.8288L552.214 74.1139V21.6439Z" fill="black"/>
<path d="M338.579 94.9309L338.867 108.619C339.098 119.472 339.334 122.575 340.02 123.595C340.493 124.303 341.727 125.267 342.759 125.734C343.791 126.202 346.058 126.584 347.805 126.584C350.624 126.584 351.005 126.727 351.259 127.867C351.409 128.574 351.535 130.303 351.535 131.717C351.535 133.126 351.293 134.666 350.993 135.139C350.561 135.829 349.708 135.92 346.536 135.595C344.38 135.378 341.318 134.808 339.732 134.34C338.146 133.867 335.748 132.567 334.398 131.455C332.582 129.96 331.706 128.66 331.008 126.441C330.293 124.166 329.999 120.213 329.791 109.913C329.636 102.471 329.676 95.9803 329.878 95.4897C330.172 94.7712 331.06 94.6286 338.579 94.9309Z" fill="black"/>
<path fill-rule="evenodd" clip-rule="evenodd" d="M378.388 97.0924C376.935 95.5753 376.197 95.2559 374.041 95.2332C372.611 95.2217 370.927 95.5582 370.293 95.9916C369.658 96.4251 368.574 97.9023 367.882 99.2767C367.196 100.651 365.166 105.75 363.379 110.615L359.504 121.166L358.161 124.588L355.912 130.291C355.064 132.487 354.517 134.603 354.695 134.996C354.914 135.493 356.287 135.664 359.193 135.567L363.367 135.424C365.443 129.675 366.354 127.679 366.729 127.274C367.213 126.749 369.26 126.544 373.752 126.567C377.241 126.584 380.378 126.789 380.724 127.023C381.069 127.251 381.986 129.236 382.765 131.432L384.172 135.424C391.229 135.664 392.584 135.493 392.792 134.996C392.953 134.603 391.241 129.407 388.981 123.447L382.851 107.193C381.733 104.21 380.666 101.13 380.481 100.349C380.291 99.5619 379.351 98.1019 378.388 97.0924ZM370.869 119.455C370.391 119.295 370.004 118.782 370.004 118.314C370.004 117.841 370.823 115.468 371.821 113.039C373.499 108.944 373.689 108.704 374.415 109.759C374.842 110.387 375.776 112.645 376.491 114.784C377.627 118.172 377.679 118.731 376.924 119.193C376.445 119.483 375.084 119.729 373.896 119.729C372.709 119.734 371.342 119.609 370.869 119.455Z" fill="black"/>
<path fill-rule="evenodd" clip-rule="evenodd" d="M395.935 95.216H407.478C416.583 95.216 419.38 95.3986 420.746 96.0715C421.698 96.5392 422.868 97.503 423.347 98.2103C423.877 98.9973 424.217 100.817 424.217 102.915C424.217 105.984 423.952 106.765 421.617 110.472C420.187 112.748 419.016 114.864 419.016 115.177C419.016 115.491 420.072 117.094 421.363 118.742C422.655 120.39 423.981 122.632 424.315 123.732C424.65 124.827 424.759 126.949 424.563 128.438C424.281 130.599 423.796 131.494 422.188 132.858C421.075 133.799 419.195 134.837 418.007 135.167C416.75 135.515 411.734 135.698 396.24 135.424L395.935 95.216ZM405.062 115.292C405.16 124.246 405.322 126.059 406.043 126.299C406.515 126.453 408.851 126.584 411.232 126.584C413.608 126.584 415.684 126.327 415.845 126.014C416.001 125.7 414.323 123.584 412.108 121.308C409.9 119.033 408.078 116.66 408.066 116.033C408.061 115.406 409.439 113.221 411.14 111.185C412.835 109.143 414.524 106.902 414.894 106.195C415.424 105.168 415.384 104.74 414.692 104.056C414.104 103.474 412.656 103.201 410.194 103.201C408.193 103.201 406.198 103.509 405.754 103.885C405.108 104.432 404.97 106.702 405.062 115.292Z" fill="black"/>
<path d="M76.4467 2.41913C75.9941 1.66043 75.5341 1.03862 75.4276 1.03862C75.3187 1.03862 74.1568 2.9017 72.8399 5.18012L69.7269 10.6421L68.5505 12.8029L66.0838 16.8244C65.2051 18.3105 64.5394 19.6334 64.6072 19.7654C64.6847 19.9191 68.5602 20.0055 75.5002 20.0055C84.9143 20.0055 86.2722 19.9599 86.2722 19.6454C86.2722 19.4461 84.8368 16.8268 83.0818 13.8233L78.5842 6.08045L76.4467 2.41913Z" fill="black"/>
<path d="M86.386 22.1063C86.3231 22.0079 81.4309 21.9262 75.5124 21.9262C68.5892 21.9262 64.704 22.0127 64.6193 22.1663C64.5467 22.2984 65.4884 24.1086 66.7108 26.1878L72.0968 35.3495C73.8348 38.3098 75.3671 40.7659 75.5002 40.8115C75.6334 40.8571 78.163 36.7084 81.121 31.5898C84.0791 26.4735 86.449 22.2047 86.386 22.1063Z" fill="black"/>
<path d="M63.6801 24.9873C63.1911 24.0966 62.6925 23.3668 62.5739 23.3668C62.4528 23.3668 59.9474 27.5251 57.0063 32.6101C54.0628 37.6928 51.6566 41.9615 51.6566 42.0935C51.6566 42.2497 55.4498 42.3336 62.5496 42.3336H73.4427C73.2539 41.4021 72.8859 40.6747 72.5035 40.1128L70.5378 36.8117L63.6801 24.9873Z" fill="black"/>
<path d="M92.7451 30.3293C90.5423 26.5647 88.6348 23.4532 88.5041 23.4148L82.8736 32.6101C80.039 37.4959 77.6837 41.683 77.6377 41.9135C77.5627 42.3097 78.1824 42.3313 88.1483 42.3025L99.3439 41.8535C99.3439 41.7214 98.7605 40.6147 98.0464 39.3926L92.7451 30.3293Z" fill="black"/>
<path d="M73.4354 44.5545C73.4402 44.3192 71.1067 44.2543 62.5496 44.2543C53.9999 44.2543 51.6566 44.3192 51.6518 44.5545C51.6493 44.7202 51.7438 44.9626 51.8624 45.0947L52.7944 46.6552L56.7425 53.4977L61.0997 60.9404C61.7194 61.9968 62.3802 62.89 62.569 62.926C62.7941 62.9668 64.7403 59.8385 68.1704 53.9227C71.0632 48.9337 73.4306 44.7202 73.4354 44.5545Z" fill="black"/>
<path d="M99.2059 44.6745C99.3366 44.2784 98.7169 44.2543 88.4629 44.2543C82.4791 44.2543 77.536 44.336 77.4804 44.4344C77.4247 44.5329 77.9742 45.6396 78.698 46.8953L80.8064 50.4967L84.8997 57.5192C86.7201 60.6547 88.2911 63.2212 88.3903 63.2189C88.4896 63.2189 88.8309 62.7603 89.1504 62.1985L94.3984 53.1376L99.2059 44.6745Z" fill="black"/>
<path d="M50.9449 47.6732C50.3374 46.5832 49.7273 45.6925 49.5893 45.6925C49.4514 45.6949 46.9218 49.882 43.971 54.9983C41.0202 60.1146 38.6552 64.3833 38.7157 64.4817C38.7762 64.5802 43.5934 64.6546 49.4175 64.6474C55.6169 64.6378 60.1338 64.5394 60.3105 64.4073C60.5405 64.2368 60.2234 63.5238 59.0106 61.4806L54.1136 53.1376L50.9449 47.6732Z" fill="black"/>
<path d="M79.1772 51.397C77.3545 48.2614 75.7278 45.6949 75.5608 45.6949C75.3937 45.6949 74.1205 47.666 72.7358 50.0765L67.4757 59.1398C65.9701 61.7135 64.7355 63.956 64.7331 64.1216C64.7307 64.2872 64.9728 64.4577 65.2729 64.5033L73.3216 64.5226L83.67 64.4409C85.3911 64.4289 86.5143 64.3281 86.5143 64.1816C86.5143 64.0496 85.609 62.4026 84.5027 60.5203L79.1772 51.397Z" fill="black"/>
<path d="M103.733 49.1161C102.651 47.2339 101.627 45.6949 101.46 45.6949C101.292 45.6949 98.7871 49.8004 95.892 54.8182C92.9968 59.836 90.6658 64.076 90.7094 64.2417C90.7723 64.4769 93.1009 64.5273 101.542 64.4745C107.456 64.4385 112.348 64.3617 112.415 64.3017C112.481 64.244 111.893 63.0845 111.106 61.7279L107.688 55.8986L103.733 49.1161Z" fill="black"/>
<path d="M129.982 68.1575C128.375 65.3916 126.944 63.0941 126.804 63.0508C126.664 63.0076 124.437 66.6209 121.859 71.0793L116.509 80.2675C116.146 80.8605 115.892 81.4823 115.947 81.648C116.025 81.8833 118.416 81.9481 126.819 81.9481C132.742 81.9481 137.639 81.8665 137.695 81.7681C137.753 81.6696 136.7 79.6961 135.351 77.3865L129.982 68.1575Z" fill="black"/>
<path d="M86.1948 66.7362C86.1706 66.6713 85.4976 66.5825 84.6988 66.5393L74.0478 66.5249C68.9887 66.5609 64.7621 66.6689 64.6556 66.765C64.5492 66.8634 65.7934 69.2114 67.42 71.9845L71.1019 78.3468L72.5204 80.7477L74.2366 83.6095C74.7983 84.589 75.3647 85.4006 75.493 85.4102C75.6213 85.4198 77.766 81.9169 80.2569 77.6266C82.7502 73.3338 85.1152 69.1563 85.5146 68.3399L86.1948 66.7362Z" fill="black"/>
<path d="M112.369 66.6425C112.331 66.4073 110.007 66.352 101.542 66.3905C92.9146 66.4288 90.7505 66.4985 90.6972 66.7505C90.6609 66.921 91.4162 68.3855 92.3796 70.0037L94.5897 73.7851L97.5187 78.827L100.634 84.1689C100.99 84.7955 101.416 85.2733 101.583 85.2277C101.75 85.1821 104.255 81.0478 107.153 76.0444C110.051 71.0386 112.399 66.8082 112.369 66.6425Z" fill="black"/>
<path d="M60.4921 66.8226C60.4146 66.6689 56.5415 66.5825 49.6112 66.5825C43.6926 66.5825 38.8004 66.6641 38.7399 66.7626C38.6794 66.861 39.4153 68.2919 40.3787 69.9437L43.7919 75.8258L47.4689 82.1281C48.5727 84.0104 49.5603 85.5494 49.6596 85.5518C49.7588 85.5542 52.2642 81.3935 55.2271 76.3085C58.19 71.2234 60.5575 66.9546 60.4921 66.8226Z" fill="black"/>
<path d="M40.4538 74.1452C38.5196 70.8441 36.8349 68.1119 36.7065 68.0711C36.5783 68.0326 36.0118 68.7889 35.4478 69.7517L30.0884 79.007C27.7041 83.1341 25.799 86.5914 25.8547 86.6898C25.908 86.7883 29.6382 86.8459 34.1455 86.8171L44.9393 86.757C46.8564 86.7523 47.5415 86.6706 47.5391 86.4497C47.5366 86.2841 46.7306 84.7979 45.7502 83.1485L40.4538 74.1452Z" fill="black"/>
<path d="M64.7452 71.2858C63.7382 69.5788 62.7917 68.1431 62.6441 68.0926C62.494 68.0422 61.5063 69.49 60.4461 71.3122L55.0867 80.5676C53.201 83.8352 51.7196 86.5914 51.7971 86.6898C51.8769 86.7883 56.4786 86.8699 62.0244 86.8699C67.5725 86.8699 72.4188 86.8147 72.794 86.7498C73.2466 86.6706 73.4451 86.5074 73.3846 86.2697C73.3362 86.0704 71.7821 83.3166 69.9351 80.1474L64.7452 71.2858Z" fill="black"/>
<path d="M90.7505 71.317C89.6854 69.4996 88.6808 68.0134 88.521 68.0183C88.3589 68.0206 87.8021 68.7529 87.2817 69.6436L81.886 78.8942C79.4387 83.0909 77.5288 86.6034 77.6401 86.697C77.7515 86.793 78.1872 86.8531 78.6084 86.8339L89.3586 86.7739L99.3439 86.7498C99.1768 85.912 98.0198 83.7776 96.6642 81.4679L93.7061 76.4261L92.9509 75.1032L90.7505 71.317Z" fill="black"/>
<path d="M157.094 83.7631C155.487 80.9973 154.056 78.6997 153.916 78.6565C153.775 78.6133 151.548 82.2266 148.97 86.685L143.62 95.8732C143.257 96.4662 143.003 97.088 143.059 97.2537C143.136 97.489 145.528 97.5538 153.93 97.5538C159.853 97.5538 164.75 97.4722 164.806 97.3737C164.864 97.2753 163.811 95.3018 162.463 92.9921L157.094 83.7631Z" fill="black"/>
<path d="M134.785 87.29C134.707 87.0548 132.323 86.9923 123.916 86.9971C117.995 87.0019 113.101 87.0836 113.04 87.1772C112.98 87.2732 114.032 89.2395 115.381 91.5516L120.75 100.781C122.357 103.546 123.781 105.844 123.914 105.89C124.047 105.933 126.271 102.32 128.859 97.8611L134.223 88.6705C134.586 88.0751 134.841 87.4557 134.785 87.29Z" fill="black"/>
<path d="M108.68 92.4063C107.073 89.6405 105.642 87.3429 105.502 87.2996C105.362 87.2564 103.135 90.8698 100.557 95.3282L95.2069 104.516C94.8438 105.109 94.5897 105.731 94.6453 105.897C94.7228 106.132 97.1144 106.197 105.517 106.197C111.44 106.197 116.337 106.115 116.393 106.017C116.451 105.918 115.398 103.945 114.049 101.635L108.68 92.4063Z" fill="black"/>
<path d="M47.5681 89.1171L46.9363 88.877L36.2878 88.853C30.696 88.8866 26.0387 88.9947 25.937 89.0931C25.8353 89.1916 26.501 90.5673 27.416 92.1518L31.2576 98.7542L34.9831 105.095C35.8327 106.535 36.6363 107.712 36.7695 107.707C36.9026 107.702 39.4201 103.551 42.3637 98.4829C45.3096 93.4171 47.6504 89.2011 47.5681 89.1171Z" fill="black"/>
<path d="M73.4015 89.1003C73.4015 88.721 72.6511 88.6922 62.9515 88.7186L52.0221 88.8458L54.0386 93.4123L60.2064 104.036C61.3418 105.95 62.4117 107.517 62.586 107.517C62.7578 107.517 65.2632 103.465 68.1535 98.5142C71.0414 93.5611 73.4039 89.326 73.4015 89.1003Z" fill="black"/>
<path d="M99.4455 88.9706C99.3656 88.8722 94.5582 88.7906 88.7583 88.7906C82.1039 88.7906 78.0928 88.8795 77.887 89.0307C77.628 89.2227 77.8289 89.7101 78.8674 91.4316L83.6676 99.5945L87.7464 106.622C88.066 107.186 88.4387 107.647 88.5719 107.647C88.705 107.645 89.2134 106.968 89.6999 106.139L95.0859 96.8935C97.5623 92.6344 99.523 89.0691 99.4455 88.9706Z" fill="black"/>
<path d="M24.2425 90.7785C24.1432 90.5432 23.9061 90.3511 23.7196 90.3511C23.5308 90.3511 23.1992 90.7569 22.9813 91.2515C22.7635 91.746 22.1559 92.8265 21.6282 93.6524L18.2344 99.4745L15.3562 104.396L12.9186 108.898C12.921 108.996 13.335 109.083 13.8336 109.092H24.4846C29.844 109.083 34.3367 109.023 34.4698 108.958C34.6054 108.891 34.3222 108.13 33.8211 107.217L30.0376 100.675L25.7845 93.4795L24.2425 90.7785Z" fill="black"/>
<path d="M51.3443 92.632C50.6351 91.4435 49.892 90.44 49.6934 90.404C49.449 90.356 48.5098 91.7629 46.8056 94.7256L41.5527 103.796C40.0544 106.37 38.8295 108.612 38.8271 108.778C38.8271 109.013 41.1654 109.078 49.7201 109.078C56.8199 109.078 60.6131 108.994 60.6131 108.838C60.6131 108.706 59.4028 106.519 57.9213 103.976L54.0942 97.4337L52.7944 95.1529L51.3443 92.632Z" fill="black"/>
<path d="M138.658 109.378C138.581 109.143 136.196 109.08 127.789 109.085C121.868 109.09 116.974 109.172 116.913 109.265C116.853 109.361 117.906 111.328 119.254 113.64L124.623 122.869C126.23 125.634 127.654 127.932 127.787 127.978C127.92 128.021 130.145 124.408 132.732 119.949L138.096 110.759C138.46 110.163 138.714 109.544 138.658 109.378Z" fill="black"/>
<path d="M34.6442 111.256C34.5256 111.078 31.3327 111.013 24.4846 111.047L13.7126 111.167C13.2793 111.208 12.9259 111.347 12.9259 111.479C12.9259 111.611 13.214 112.233 13.5673 112.859L15.9469 116.881L18.6314 121.443L19.8708 123.603L20.4154 124.564L21.2602 126.004L22.7175 128.465C23.1895 129.291 23.6979 129.939 23.8431 129.906C23.9908 129.872 25.7094 127.089 27.6653 123.723L33.0199 114.557C34.0099 112.881 34.741 111.395 34.6442 111.256Z" fill="black"/>
<path d="M60.5526 111.328C60.6034 111.054 58.8388 110.999 49.8678 110.999C41.5624 110.999 39.0691 111.066 38.8827 111.299C38.7109 111.512 39.3281 112.759 41.0638 115.68L44.3631 121.334L47.2994 126.432C48.4299 128.371 49.4659 129.961 49.5991 129.963C49.7322 129.968 52.2376 125.851 55.1666 120.813C58.0956 115.779 60.5187 111.51 60.5526 111.328Z" fill="black"/>
<path d="M112.415 111.239C112.415 111.083 108.622 110.999 101.522 110.999C92.9702 110.999 90.6294 111.063 90.627 111.299C90.6246 111.464 91.8858 113.76 93.4302 116.401L98.579 125.231C99.8643 127.445 101.08 129.313 101.28 129.38C101.479 129.445 101.825 129.308 102.05 129.072C102.273 128.837 104.696 124.782 107.436 120.062C110.174 115.342 112.415 111.371 112.415 111.239Z" fill="black"/>
<path d="M39.9043 117.426C38.3139 114.689 36.9026 112.449 36.7695 112.451C36.6363 112.451 34.1576 116.554 31.2624 121.57C28.3673 126.583 25.9975 130.847 25.9975 131.046C25.9975 131.361 27.3555 131.406 36.7695 131.406C43.7095 131.406 47.5851 131.32 47.6625 131.166C47.7279 131.034 46.6628 129.008 45.2903 126.664L39.9043 117.426Z" fill="black"/>
<path d="M13.0202 115.983C11.9697 114.17 10.9773 112.684 10.8126 112.682C10.648 112.682 10.3624 112.922 10.1736 113.22L7.3438 118.081L2.37897 126.724C1.0186 129.101 -0.0513673 131.128 0.00190626 131.226C0.0527312 131.324 4.94252 131.406 10.8683 131.406C20.2823 131.406 21.6403 131.361 21.6403 131.046C21.6403 130.847 21.3305 130.172 20.9528 129.545L17.5977 123.843L13.0202 115.983Z" fill="black"/>
<path d="M117.879 119.776C116.272 117.01 114.841 114.713 114.701 114.67C114.56 114.626 112.333 118.24 109.755 122.698L104.405 131.886C104.042 132.479 103.788 133.101 103.844 133.267C103.921 133.502 106.313 133.567 114.715 133.567C120.639 133.567 125.536 133.485 125.591 133.387C125.649 133.288 124.596 131.315 123.248 129.005L117.879 119.776Z" fill="black"/>
<path d="M147.169 121.697C145.562 118.931 144.131 116.634 143.991 116.59C143.85 116.547 141.623 120.16 139.045 124.619L133.696 133.807C133.333 134.4 133.078 135.022 133.134 135.187C133.212 135.423 135.603 135.488 144.005 135.488C149.929 135.488 154.826 135.406 154.881 135.308C154.939 135.209 153.886 133.236 152.538 130.926L147.169 121.697Z" fill="black"/>
</svg>
